#!OML:ASF F:\VICON\USERDATA\INSTALL\rory3\rory3.ASF
:FULLY-SPECIFIED
:DEGREES
113
root 0.0525017 17.5992 -10.7642 -0.315972 -1.76748 -4.30258
lowerback 7.06005 0.327297 4.19458
upperback 1.28148 0.837511 3.07898
thorax -2.62142 0.391281 0.747924
lowerneck -15.5937 -2.51345 -9.08003
upperneck 20.4948 -2.06948 3.90911
head 9.16273 -1.25159 2.59532
rclavicle 4.47266e-016 -7.15625e-015
rhumerus -23.3501 -7.54182 -79.0604
rradius 31.8697
rwrist 3.05385
rhand -13.7536 17.0293
rfingers 7.12502
rthumb 12.3667 -12.5849
lclavicle 4.47266e-016 -7.15625e-015
lhumerus -34.3462 8.72784 84.8442
lradius 27.6772
lwrist -11.845
lhand -16.8646 24.0371
lfingers 7.12502
lthumb 9.36596 53.809
rfemur -2.85142 6.522 31.4955
rtibia 31.005
rfoot -19.9033 -14.7372
rtoes -7.30209
lfemur -28.7573 3.04326 -15.0843
ltibia 35.9843
lfoot -6.49075 5.29942
ltoes -12.1486
114
root 0.0536392 17.5846 -10.5851 -3.58947e-005 -1.82557 -4.28891
lowerback 6.73055 0.44221 4.26953
upperback 1.33774 0.967212 2.94431
thorax -2.37328 0.45898 0.558037
lowerneck -15.9521 -2.57925 -8.9797
upperneck 20.6108 -2.16456 3.96141
head 9.27453 -1.28113 2.58506
rclavicle 5.2181e-015 1.43125e-014
rhumerus -22.72 -7.74338 -79.1452
rradius 32.1517
rwrist 3.02229
rhand -13.7786 17.4972
rfingers 7.12502
rthumb 12.3426 -12.1185
lclavicle 5.2181e-015 1.43125e-014
lhumerus -34.3455 9.13546 84.6496
lradius 27.1029
lwrist -12.08
lhand -23.0361 16.4802
lfingers 7.12502
lthumb 3.4082 46.4327
rfemur -2.39087 6.48448 31.4973
rtibia 30.7057
rfoot -20.0776 -14.8997
rtoes -7.99692
lfemur -28.8256 2.5932 -15.0058
ltibia 32.9278
lfoot -5.67193 6.0849
ltoes -12.6929
115
root 0.0549161 17.5671 -10.3994 0.200646 -2.07153 -4.43553
lowerback 6.54283 0.527618 4.40744
upperback 1.28907 1.08011 2.94461
thorax -2.31383 0.51466 0.47354
lowerneck -15.8965 -2.56969 -9.14508
upperneck 20.6661 -2.14853 4.10819
head 9.28591 -1.27204 2.66664
rclavicle -1.31198e-014 2.38542e-015
rhumerus -22.4245 -7.52238 -79.2188
rradius 32.5901
rwrist 2.94373
rhand -14.0387 17.4216
rfingers 7.12502
rthumb 12.0918 -12.209
lclavicle -1.31198e-014 2.38542e-015
lhumerus -34.6679 9.78381 84.4578
lradius 26.5892
lwrist -12.0728
lhand -17.533 24.2114
lfingers 7.12502
lthumb 8.72101 54.0113
rfemur -1.73264 6.6806 31.7071
rtibia 30.3178
rfoot -20.2392 -15.0755
rtoes -8.6406
lfemur -28.5972 2.11978 -14.624
ltibia 29.6807
lfoot -4.60839 6.89263
ltoes -12.5262
116
root 0.0578462 17.5501 -10.2214 0.312205 -2.15236 -4.52746
lowerback 6.59615 0.589324 4.51901
upperback 1.23236 1.17666 2.95519
thorax -2.39794 0.560029 0.413269
lowerneck -15.5516 -2.56518 -9.2486
upperneck 20.3175 -2.14688 4.11473
head 9.10311 -1.27547 2.68291
rclavicle -3.32964e-015 3.10104e-014
rhumerus -22.0415 -7.33915 -79.1762
rradius 32.8433
rwrist 2.63068
rhand -14.5454 17.6651
rfingers 7.12502
rthumb 11.6032 -11.9937
lclavicle -3.32964e-015 3.10104e-014
lhumerus -34.9615 10.2321 84.3635
lradius 26.0748
lwrist -12.3151
lhand -15.8632 26.6933
lfingers 7.12502
lthumb 10.3322 56.4195
rfemur -0.938849 6.71299 31.8606
rtibia 29.8601
rfoot -20.5231 -15.1405
rtoes -8.54481
lfemur -28.299 1.51379 -14.3023
ltibia 26.2544
lfoot -3.27422 7.56667
ltoes -12.7061
117
root 0.0608908 17.539 -10.0378 0.393597 -2.11974 -4.42842
lowerback 6.66213 0.637012 4.44754
upperback 1.23067 1.23809 2.89467
thorax -2.43514 0.590354 0.384594
lowerneck -15.6547 -2.564 -9.19496
upperneck 20.1813 -2.12471 4.02067
head 9.072 -1.26756 2.64213
rclavicle 4.91992e-015 -3.37934e-014
rhumerus -21.5585 -7.31204 -79.1891
rradius 33.0713
rwrist 2.47862
rhand -15.0479 17.8699
rfingers 7.12502
rthumb 11.1186 -11.8155
lclavicle 4.91992e-015 -3.37934e-014
lhumerus -35.1523 10.8504 84.1446
lradius 25.5117
lwrist -12.994
lhand -15.8567 26.4817
lfingers 7.12502
lthumb 10.3384 56.2076
rfemur -0.0557417 6.6062 31.7779
rtibia 29.3208
rfoot -20.8289 -15.1653
rtoes -8.43034
lfemur -27.9571 0.461359 -14.0577
ltibia 22.7425
lfoot -1.93895 8.4447
ltoes -12.866
118
root 0.0644299 17.5204 -9.84816 0.742601 -2.3085 -4.56854
lowerback 6.46977 0.705412 4.55938
upperback 1.0583 1.33402 2.94821
thorax -2.50236 0.634591 0.371036
lowerneck -15.6325 -2.50246 -9.31009
upperneck 20.2862 -2.00444 3.98381
head 9.09708 -1.22629 2.66488
rclavicle -2.72335e-014 -2.06736e-014
rhumerus -21.3102 -7.0534 -79.1085
rradius 33.3085
rwrist 2.36925
rhand -14.8556 18.123
rfingers 7.12502
rthumb 11.304 -11.5524
lclavicle -2.72335e-014 -2.06736e-014
lhumerus -35.5638 11.4396 83.9736
lradius 25.0158
lwrist -13.2102
lhand -15.6478 26.0112
lfingers 7.12502
lthumb 10.5399 55.7269
rfemur 0.612602 6.67094 31.8807
rtibia 28.741
rfoot -21.2716 -14.8673
rtoes -7.11004
lfemur -27.7347 -0.496119 -13.4493
ltibia 19.1925
lfoot -0.580786 9.276
ltoes -14.0493
119
root 0.0656645 17.4969 -9.66501 1.04657 -2.58731 -4.87565
lowerback 6.35178 0.847558 4.81701
upperback 0.908163 1.54158 2.99539
thorax -2.58089 0.732724 0.259805
lowerneck -15.4588 -2.46837 -9.15218
upperneck 20.2196 -1.99168 3.88558
head 9.03822 -1.21891 2.606
rclavicle -1.54058e-015 2.10712e-014
rhumerus -20.9765 -7.15855 -79.0609
rradius 33.294
rwrist 2.35477
rhand -14.9241 18.519
rfingers 7.12502
rthumb 11.2379 -11.16
lclavicle -1.54058e-015 2.10712e-014
lhumerus -36.0498 11.8238 83.7598
lradius 24.6034
lwrist -13.3977
lhand -15.8951 24.636
lfingers 7.12502
lthumb 10.3013 54.3638
rfemur 1.35492 6.86218 32.1935
rtibia 28.1756
rfoot -21.8989 -14.386
rtoes -5.03734
lfemur -27.2638 -1.62958 -12.4854
ltibia 15.608
lfoot 0.294117 10.3489
ltoes -14.2572
120
root 0.0744119 17.4682 -9.47241 1.10584 -2.83555 -4.93188
lowerback 6.18705 1.03947 4.95919
upperback 1.07601 1.78224 2.90459
thorax -2.30042 0.857893 0.0725339
lowerneck -15.8084 -2.55137 -8.96145
upperneck 20.2037 -2.12152 3.89047
head 9.10308 -1.2609 2.55853
rclavicle 7.45443e-016 -1.11319e-014
rhumerus -20.2613 -7.67051 -79.0579
rradius 33.1892
rwrist 2.60487
rhand -15.2192 18.931
rfingers 7.12502
rthumb 10.9533 -10.7632
lclavicle 7.45443e-016 -1.11319e-014
lhumerus -36.0278 12.4046 83.4883
lradius 23.9479
lwrist -14.0797
lhand -16.3726 23.9272
lfingers 7.12502
lthumb 9.84065 53.6773
rfemur 2.33879 6.86212 32.2207
rtibia 27.7291
rfoot -22.1918 -14.2556
rtoes -5.60467
lfemur -26.2309 -2.40833 -12.033
ltibia 11.8889
lfoot 0.686068 10.773
ltoes -14.3319
121
root 0.0831428 17.4413 -9.27822 1.22364 -3.08314 -4.94194
lowerback 5.98375 1.18604 5.01149
upperback 1.13684 1.96039 2.84256
thorax -2.11374 0.950335 -0.0285161
lowerneck -15.8592 -2.5406 -8.82895
upperneck 20.0486 -2.11481 3.80827
head 9.05565 -1.25318 2.50702
rclavicle -3.46879e-014 -4.96962e-014
rhumerus -19.9241 -7.68406 -79.0806
rradius 33.4402
rwrist 2.42766
rhand -15.1065 19.0009
rfingers 7.12502
rthumb 11.062 -10.6875
lclavicle -3.46879e-014 -4.96962e-014
lhumerus -36.2091 13.0943 83.1957
lradius 23.4127
lwrist -14.7255
lhand -15.9242 24.5834
lfingers 7.12502
lthumb 10.2733 54.3125
rfemur 3.12507 6.75251 32.1536
rtibia 27.4725
rfoot -22.1412 -14.0633
rtoes -6.3969
lfemur -24.8502 -2.1429 -12.1126
ltibia 7.48795
lfoot 1.18662 9.97577
ltoes -14.9952
122
root 0.0895362 17.4201 -9.0879 1.42202 -3.32173 -4.88805
lowerback 5.93228 1.28287 4.8537
upperback 0.978269 2.08504 2.87554
thorax -2.25137 1.00919 0.0831487
lowerneck -15.6094 -2.43356 -8.98923
upperneck 19.9798 -1.97245 3.91288
head 8.97911 -1.18842 2.58765
rclavicle -3.62782e-015 -2.38542e-015
rhumerus -19.8665 -7.25049 -78.977
rradius 33.7521
rwrist 1.86514
rhand -14.9111 19.1315
rfingers 7.12502
rthumb 11.2505 -10.5468
lclavicle -3.62782e-015 -2.38542e-015
lhumerus -36.7799 13.4889 83.1265
lradius 23.0623
lwrist -15.0223
lhand -15.8241 24.7702
lfingers 7.12502
lthumb 10.3699 54.4945
rfemur 3.54824 6.67074 32.0178
rtibia 27.4797
rfoot -21.9062 -13.9163
rtoes -6.40399
lfemur -21.9154 -1.80015 -12.0983
ltibia -2.8625e-014
lfoot 2.84752 9.2076
ltoes -15.0598
123
root 0.102004 17.4045 -8.89285 1.65388 -3.49453 -4.96563
lowerback 5.75993 1.34111 4.97845
upperback 0.927552 2.16032 2.87729
thorax -2.20036 1.0461 0.0140314
lowerneck -15.6105 -2.37047 -9.01209
upperneck 19.9242 -1.88952 3.9625
head 8.95467 -1.14495 2.61826
rclavicle 1.91827e-014 -7.95139e-016
rhumerus -19.6155 -6.9484 -78.9838
rradius 33.9271
rwrist 1.71886
rhand -15.0058 19.4939
rfingers 7.12502
rthumb 11.1592 -10.1893
lclavicle 1.91827e-014 -7.95139e-016
lhumerus -37.1481 14.0169 82.9227
lradius 22.6738
lwrist -15.5437
lhand -16.3052 23.1772
lfingers 7.12502
lthumb 9.90573 52.9242
rfemur 3.85772 6.45691 31.9842
rtibia 27.6278
rfoot -21.5811 -13.9486
rtoes -7.55694
lfemur -22.8036 -1.54447 -12.01
ltibia 6.67916e-014
lfoot 0.895282 8.74587
ltoes -14.6519
124
root 0.116188 17.3944 -8.6993 1.87473 -3.58905 -4.81601
lowerback 5.60481 1.43693 4.92975
upperback 0.913892 2.2714 2.76122
thorax -2.12086 1.1029 -0.0820962
lowerneck -15.8677 -2.46166 -9.02428
upperneck 19.9563 -2.00121 4.02192
head 9.02135 -1.19005 2.6266
rclavicle -5.26779e-015 -9.54166e-015
rhumerus -19.4077 -6.93042 -78.9822
rradius 34.1992
rwrist 1.7103
rhand -15.0419 19.3153
rfingers 7.12502
rthumb 11.1244 -10.3698
lclavicle -5.26779e-015 -9.54166e-015
lhumerus -37.3119 14.369 82.7469
lradius 22.2314
lwrist -16.1841
lhand -16.4926 22.3898
lfingers 7.12502
lthumb 9.72495 52.1453
rfemur 4.11973 6.37263 31.6967
rtibia 27.805
rfoot -21.884 -13.7786
rtoes -9.40665
lfemur -23.4847 -1.40373 -12.214
ltibia -5.725e-014
lfoot -0.684801 8.15281
ltoes -15.3123
